<?xml version="1.0" encoding="UTF-8" standalone="no"?>
<!-- Created with Inkscape (http://www.inkscape.org/) -->

<svg
   xmlns:dc="http://purl.org/dc/elements/1.1/"
   xmlns:cc="http://creativecommons.org/ns#"
   xmlns:rdf="http://www.w3.org/1999/02/22-rdf-syntax-ns#"
   xmlns:svg="http://www.w3.org/2000/svg"
   xmlns="http://www.w3.org/2000/svg"
   xmlns:sodipodi="http://sodipodi.sourceforge.net/DTD/sodipodi-0.dtd"
   xmlns:inkscape="http://www.inkscape.org/namespaces/inkscape"
   width="210mm"
   height="297mm"
   viewBox="0 0 744.09448819 1052.3622047"
   id="svg2"
   version="1.1"
   inkscape:version="0.91 r13725"
   sodipodi:docname="logo.svg">
  <defs
     id="defs4" />
  <sodipodi:namedview
     id="base"
     pagecolor="#ffffff"
     bordercolor="#666666"
     borderopacity="1.0"
     inkscape:pageopacity="0.0"
     inkscape:pageshadow="2"
     inkscape:zoom="0.35"
     inkscape:cx="-85.586415"
     inkscape:cy="191.15824"
     inkscape:document-units="px"
     inkscape:current-layer="layer1"
     showgrid="false"
     inkscape:window-width="1920"
     inkscape:window-height="1043"
     inkscape:window-x="0"
     inkscape:window-y="0"
     inkscape:window-maximized="1" />
  <metadata
     id="metadata7">
    <rdf:RDF>
      <cc:Work
         rdf:about="">
        <dc:format>image/svg+xml</dc:format>
        <dc:type
           rdf:resource="http://purl.org/dc/dcmitype/StillImage" />
        <dc:title></dc:title>
      </cc:Work>
    </rdf:RDF>
  </metadata>
  <g
     inkscape:label="Layer 1"
     inkscape:groupmode="layer"
     id="layer1">
    <path
       style="fill:#179d82;fill-opacity:1"
       d="m 152.78571,773.62491 c -7.47418,-0.71322 -14.99023,-2.6077 -18.27424,-4.60614 -5.06173,-3.08026 -6.55696,-6.90788 -5.95005,-15.23147 0.57289,-7.85709 3.55441,-17.87634 15.64314,-52.56795 4.50387,-12.925 12.63949,-36.325 18.07913,-52 5.43965,-15.675 15.28183,-44.025 21.87152,-63 11.98074,-34.49854 27.85523,-80.25779 45.79255,-132 9.10886,-26.27553 20.13617,-58.04534 46.51144,-134 6.58907,-18.975 16.26303,-46.875 21.49769,-62 12.97051,-37.47696 14.15852,-40.44104 18.01428,-44.94563 4.14676,-4.84456 11.01706,-7.58243 22.46827,-8.95378 23.13634,-2.77073 94.09908,-1.85676 106.34627,1.36969 10.99266,2.89596 14.53134,5.33598 18.2305,12.57048 1.81652,3.55258 10.07655,26.03424 18.35563,49.95924 17.55527,50.73148 44.77237,128.96851 48.87714,140.5 1.56624,4.4 8.4805,24.2 15.36503,44 21.5133,61.87246 43.7302,125.66162 46.6704,134 1.5515,4.4 8.5294,24.425 15.5063,44.5 6.977,20.075 13.7252,39.425 14.9961,43 11.1353,31.32308 21.78,62.93266 23.4607,69.66661 1.121,4.49164 2.0382,10.72414 2.0382,13.85 0,5.09728 -0.3406,6.02398 -3.3027,8.98604 -6.0046,6.0047 -10.318,6.68654 -45.8014,7.24012 -44.5789,0.69549 -60.09086,-1.08989 -66.67181,-7.67371 -3.04525,-3.04659 -3.72047,-4.92889 -22.80339,-63.56906 -6.98034,-21.45 -14.28783,-43.83952 -16.23886,-49.75448 l -3.54732,-10.75448 -106.93,0.25448 -106.92999,0.25448 -1.75017,5.5 c -0.96259,3.025 -6.33485,19.675 -11.93834,37 -5.6035,17.325 -13.13177,40.725 -16.72949,52 -8.00698,25.09334 -9.75204,28.37609 -16.79939,31.60247 -2.88147,1.31918 -7.4481,2.87539 -10.14808,3.45825 -4.76614,1.02888 -57.86602,2.11237 -65.90906,1.34484 z m 308.5,-220.69988 c 0,-0.71186 -4.29994,-14.32435 -9.55542,-30.25 -5.25548,-15.92562 -17.88082,-54.15568 -28.05631,-84.95569 -10.17548,-30.79999 -23.47465,-71.07499 -29.5537,-89.5 -6.07904,-18.42499 -11.40779,-33.88158 -11.84165,-34.34795 -0.43387,-0.46638 -6.72262,17.30861 -13.975,39.5 -7.25238,22.19138 -17.46409,53.39796 -22.69269,69.34795 -5.2286,15.95001 -13.48717,41.15 -18.35238,56 -4.8652,14.85 -12.24941,37.3502 -16.40934,50.00045 -4.15993,12.65025 -7.56351,23.56275 -7.56351,24.25 0,0.98887 16.48177,1.24955 79,1.24955 63.9756,0 79,-0.24614 79,-1.29431 z m -753.5,217.67239 c -27.32726,-2.91724 -48.4121,-9.1301 -64.03847,-18.86958 -11.70498,-7.29539 -13.54252,-11.64792 -13.55532,-32.10804 -0.0101,-16.14 1.21647,-22.5652 4.8539,-25.4264 3.42794,-2.69642 5.80858,-2.4663 12.23989,1.18315 30.79852,17.47663 43.48189,21.68113 68.0521,22.55907 12.73814,0.45516 15.5875,0.25159 22.85836,-1.63311 4.56844,-1.18418 10.12141,-3.0791 12.33993,-4.21091 6.57494,-3.35428 13.21391,-10.30466 16.37009,-17.13795 2.53313,-5.48435 2.87952,-7.37711 2.87952,-15.73431 0,-8.04522 -0.373,-10.25793 -2.4358,-14.44953 -4.77224,-9.69717 -18.76617,-20.41562 -37.5642,-28.77175 -4.4,-1.9559 -12.275,-5.44208 -17.5,-7.74707 -40.12077,-17.69918 -59.23033,-33.79121 -70.10111,-59.03165 -5.17065,-12.00555 -6.21837,-18.14253 -6.14599,-36 0.0748,-18.46248 1.84109,-26.622 8.76687,-40.5 8.66062,-17.35432 20.4852,-28.85147 38.98023,-37.9009 26.53025,-12.98095 62.60495,-15.90476 95.07788,-7.70592 20.76988,5.24402 32.67329,11.26653 37.05878,18.74982 2.43928,4.16231 2.51895,4.86415 2.48836,21.92195 -0.0329,18.36146 -0.90323,23.7108 -4.13936,25.44274 -3.32722,1.78066 -5.64097,1.08353 -19.15321,-5.77094 -20.67195,-10.48641 -34.17376,-14.19018 -51.83563,-14.21938 -16.98012,-0.0281 -27.49762,3.90841 -35.53715,13.30079 -4.30341,5.02757 -6.09035,10.43102 -6.363,19.24081 -0.25868,8.35822 1.25951,13.34393 5.96458,19.5876 7.27962,9.66012 16.18051,15.22977 44.93875,28.12 34.82309,15.60867 46.71448,22.50386 58.8402,34.11838 10.92791,10.46718 17.45231,20.59907 22.39201,34.77306 3.24014,9.29725 3.25555,9.43302 3.21674,28.342 -0.0365,17.77279 -0.21544,19.58131 -2.77075,28 -13.54548,44.62687 -52.65961,70.16458 -110.1782,71.9356 -6.6,0.20321 -13.8,0.17733 -16,-0.0575 z m 193.63401,-4.53581 c -6.70415,-0.95926 -11.8182,-3.08059 -13.85221,-5.74595 -1.70819,-2.23841 -1.83889,-290.99829 -0.13477,-297.76595 1.52916,-6.07284 6.98457,-11.75471 12.78282,-13.31345 3.27282,-0.87982 18.55243,-1.07118 58.5,-0.73264 49.46525,0.41921 54.87922,0.63083 63.57015,2.48483 26.65623,5.68647 42.07136,13.23233 56.56271,27.68802 9.31364,9.29071 15.22669,18.64721 19.46522,30.80069 4.17182,11.96219 5.32581,22.17921 4.65217,41.18878 -0.67456,19.03533 -1.0038,21.31875 -4.76594,33.0534 -6.94164,21.65195 -18.26194,36.98569 -37.41416,50.67876 -10.88325,7.78109 -26.11179,13.78925 -44.5,17.55672 -10.84435,2.22184 -16.00999,2.64076 -39,3.16279 l -26.5,0.60173 -0.5,52.48079 -0.5,52.48079 -4,2.19219 c -7.13761,3.91175 -28.55419,5.45092 -44.36599,3.1885 z M -3.41004,603.78814 C 22.72535,598.78762 37.73837,576.31096 35.99877,544.78746 34.74778,522.11821 25.08502,508.19085 5.6368,501.02544 c -5.26077,-1.93827 -8.34815,-2.19761 -30.60109,-2.57047 l -24.75,-0.41472 0,53.58955 0,53.58954 19.41203,0 c 12.68935,0 22.00253,-0.49564 26.89222,-1.4312 z M -206.45803,413.63091 c -4.89607,-2.49852 -9.75647,-8.4674 -12.23938,-15.03073 -4.25637,-11.25136 -9.65963,-45.85662 -15.5173,-99.38084 -2.7967,-25.55479 -7.58911,-65.42286 -7.90186,-65.73561 -0.16658,-0.16658 -1.7438,7.01829 -3.50494,15.96637 -9.82606,49.92462 -15.70169,64.41865 -28.53717,70.39554 -6.60633,3.07627 -11.87781,3.01411 -18.36084,-0.21652 -8.81383,-4.39213 -13.87816,-12.33004 -23.5482,-36.90978 -7.02137,-17.84723 -9.44074,-23.25476 -10.77271,-24.07795 -0.58806,-0.36344 -3.38775,1.57532 -6.22153,4.30835 -10.66523,10.28605 -20.0189,15.00739 -31.61257,15.9567 -5.35072,0.43813 -9.35792,-0.1414 -22.03976,-3.18743 -15.19868,-3.65055 -15.80442,-3.71441 -31.15931,-3.28464 l -15.6593,0.43828 -0.60679,-12.57666 c -0.33373,-6.91716 -0.75576,-14.6857 -0.93783,-17.26343 l -0.33103,-4.68677 6.47345,-0.69325 c 3.5604,-0.38129 13.27911,-0.45799 21.59713,-0.17044 12.7447,0.44056 17.06944,1.03173 27.49331,3.75819 14.91633,3.90149 14.28392,4.0889 27.87214,-8.25961 12.36905,-11.24057 16.46184,-13.26631 26.75823,-13.24403 9.88257,0.0214 13.98755,1.95325 21.41206,10.07685 5.11521,5.59685 9.93532,14.16126 15.58467,27.69091 1.55821,3.73181 3.15226,6.4318 3.54232,6 0.39005,-0.43178 2.15103,-8.43507 3.91328,-17.78507 12.27234,-65.11348 14.77249,-76.31472 19.322,-86.5672 4.98437,-11.23246 12.50864,-16.53016 22.32179,-15.71638 11.87938,0.98513 19.08153,10.88857 23.84141,32.78358 2.88085,13.2516 8.25075,50.98269 12.09724,85 3.51119,31.05199 3.92453,32.91698 4.87583,22 0.40738,-4.67499 1.8065,-19.975 3.10915,-34 1.30265,-14.025 2.87314,-31.8 3.48998,-39.5 2.82462,-35.2594 7.86629,-80.08179 11.07938,-98.49999 2.69715,-15.460672 5.24492,-22.861971 9.63558,-27.991474 6.16226,-7.199216 14.55128,-8.989718 22.98677,-4.906163 10.28489,4.978828 13.87809,15.816622 19.26766,58.114957 2.54037,19.93732 4.27829,38.13566 12.10761,126.78267 2.4644,27.90299 3.30553,31.89757 4.31663,20.5 0.39033,-4.4 1.79736,-17 3.12673,-28 1.32936,-11 3.11528,-25.85 3.96871,-33 2.5232,-21.13942 7.48054,-48.34263 10.57866,-58.05001 4.50234,-14.10723 12.17802,-21.44999 22.42254,-21.44999 9.74767,0 17.54415,7.11051 22.33562,20.37042 3.06352,8.478 6.7444,24.17566 10.6825,45.5572 8.87519,48.18693 10.30971,55.07238 11.47385,55.07238 0.43517,0 1.09373,-1.2053 1.46347,-2.67846 1.0713,-4.26841 7.62672,-18.32139 11.34548,-24.32154 7.05338,-11.3805 14.47082,-16.85158 24.02057,-17.71753 11.48684,-1.04159 18.32304,2.4545 34.95068,17.87408 3.44969,3.19906 7.30395,6.07544 8.56502,6.39194 1.26108,0.31651 7.6636,-0.82762 14.22784,-2.54251 8.05104,-2.10332 15.67735,-3.34383 23.43497,-3.81199 l 11.5,-0.69399 -18.23732,-10.5 -18.23732,-10.5 -0.0127,-18.25 c -0.007,-10.0375 0.2388,-18.25 0.54617,-18.25 0.46164,0 27.9182,15.7685 57.44115,32.98886 6.15937,3.59268 25.64452,14.82298 59.74882,34.43635 8.38685,4.82328 15.03171,9.12088 14.76636,9.55024 -0.26536,0.42935 -4.42733,3.0362 -9.24882,5.79297 -8.26264,4.72432 -25.03403,14.39795 -63.26636,36.49166 -9.075,5.24425 -26.2875,15.1834 -38.25,22.08699 l -21.75,12.55198 0,-18.41134 0,-18.41134 11.75,-6.86266 c 6.4625,-3.77446 15.575,-9.07915 20.25,-11.78819 l 8.5,-4.92552 -8.09059,-0.28787 c -5.64246,-0.20075 -10.93778,0.37107 -17.5,1.88981 -24.59813,5.69283 -25.94545,5.8211 -35.36786,3.36688 -8.35797,-2.17698 -16.10002,-6.59399 -23.90519,-13.63843 -4.39372,-3.9655 -7.10455,-5.76219 -7.73808,-5.12867 -0.53634,0.53634 -4.4851,9.71037 -8.77504,20.38673 -9.36968,23.31831 -12.03954,28.70347 -16.90828,34.10438 -4.45923,4.94664 -12.20979,8.78401 -17.76862,8.7974 -5.45998,0.0132 -13.66955,-4.22164 -17.45873,-9.00586 -4.05994,-5.12609 -8.08487,-14.37366 -11.3095,-25.98437 -2.94094,-10.58922 -10.65039,-48.13454 -10.66727,-51.94999 -0.006,-1.43636 -0.36622,-2.05695 -0.8698,-1.5 -0.47243,0.5225 -1.84236,9.5 -3.04427,19.94999 -14.00675,121.78057 -16.24047,136.38627 -22.85785,149.46127 -6.90522,13.6437 -23.0974,16.03165 -32.69294,4.82141 -4.80253,-5.61067 -8.27976,-17.47696 -11.95072,-40.78268 -1.09627,-6.95984 -6.52718,-56.80517 -7.57239,-69.5 -0.58868,-7.15 -2.16402,-24.69999 -3.50074,-39 -1.33672,-14.3 -2.75541,-30.275 -3.15264,-35.5 -0.98387,-12.94128 -1.56574,-9.55 -4.80423,28 -6.30942,73.15736 -12.06475,122.9419 -16.12687,139.5 -2.36116,9.62463 -6.83907,17.81267 -11.51274,21.05154 -5.12604,3.55234 -13.68263,4.40485 -18.66939,1.86004 z"
       id="path3347"
       inkscape:connector-curvature="0"
       sodipodi:nodetypes="ssssssssssssssssssscscsssscccsssssssssssssssssscsssssssssssssssssssssssssssssssccssssssssssssscccsssssscccsscsssssssssssscsscsssssssssssssssssssssssssssssssssssscccsssscssscccsscsssssssssscssssssssssscc" />
  </g>
</svg>
